<?xml version="1.0" standalone="no"?>
<!DOCTYPE svg PUBLIC "-//W3C//DTD SVG 20010904//EN"
 "http://www.w3.org/TR/2001/REC-SVG-20010904/DTD/svg10.dtd">
<svg version="1.0" xmlns="http://www.w3.org/2000/svg"
 width="120.000000pt" height="120.000000pt" viewBox="0 0 120.000000 120.000000"
 preserveAspectRatio="xMidYMid meet">
<metadata>
Created by potrace 1.13, written by Peter Selinger 2001-2015
</metadata>
<g transform="translate(0.000000,120.000000) scale(0.100000,-0.100000)"
fill="#000000" stroke="none">
<path d="M0 600 l0 -600 600 0 600 0 0 600 0 600 -600 0 -600 0 0 -600z m713
513 c-62 -2 -164 -2 -225 0 -62 1 -12 3 112 3 124 0 174 -2 113 -3z m-203 -74
c0 -53 -1 -54 -30 -39 -13 7 -21 7 -25 0 -3 -5 -13 -10 -21 -10 -10 0 -14 13
-14 49 l0 49 45 0 45 0 0 -49z m122 31 c18 -17 20 -25 12 -48 -8 -22 -15 -27
-44 -27 -29 0 -36 5 -44 27 -8 22 -6 31 10 47 25 25 40 26 66 1z m150 6 c11
-16 9 -58 -2 -76 -8 -12 -13 -13 -29 -3 -13 8 -22 9 -26 3 -3 -6 -13 -10 -21
-10 -10 0 -14 13 -14 49 l0 50 43 -1 c23 0 45 -5 49 -12z m-375 -63 c-2 -16
-4 -5 -4 22 0 28 2 40 4 28 2 -13 2 -35 0 -50z m297 -62 c17 -7 17 -9 -9 -29
-32 -25 -47 -27 -75 -10 -16 10 -24 10 -40 0 -27 -16 -41 -15 -70 8 -21 17
-23 21 -10 30 17 11 176 12 204 1z m-218 -36 c11 -34 7 -40 -18 -36 -15 2 -8
-16 13 -35 17 -15 23 -16 40 -6 18 12 19 11 10 -6 -8 -14 -5 -28 9 -55 11 -21
20 -44 20 -52 0 -23 69 -21 76 3 3 9 12 29 20 44 8 14 14 37 14 50 -1 20 -2
21 -13 8 -13 -16 -37 -24 -37 -12 0 13 48 30 58 20 12 -12 40 0 53 23 8 16 6
19 -9 19 -19 0 -19 2 -4 34 l16 35 38 -20 c37 -19 38 -20 38 -77 l0 -57 -20
38 c-12 22 -18 47 -15 58 17 53 -18 4 -90 -126 -44 -80 -82 -145 -85 -145 -8
0 -160 267 -160 280 0 12 -17 13 -24 1 -4 -5 0 -11 6 -13 10 -4 8 -14 -7 -42
-29 -55 -35 -54 -35 7 0 54 0 55 43 75 23 12 44 21 47 22 3 0 10 -16 16 -35z
m117 -32 c-7 -2 -19 -2 -25 0 -7 3 -2 5 12 5 14 0 19 -2 13 -5z m37 -33 c-17
-11 -71 -10 -65 1 3 3 16 5 30 4 14 -2 28 1 31 7 3 5 9 7 12 3 4 -3 0 -10 -8
-15z m-180 -20 c6 -11 8 -20 6 -20 -3 0 -10 9 -16 20 -6 11 -8 20 -6 20 3 0
10 -9 16 -20z m120 -10 c0 -5 -5 -10 -11 -10 -5 0 -7 5 -4 10 3 6 8 10 11 10
2 0 4 -4 4 -10z m-231 -67 c16 -64 59 -135 74 -127 7 4 9 3 4 -1 -10 -11 23
-46 36 -38 5 3 7 2 4 -3 -3 -6 14 -22 38 -37 49 -31 115 -47 115 -28 0 7 5 9
10 6 29 -18 198 130 186 162 -3 8 -2 12 3 9 5 -3 16 19 26 50 16 52 18 54 35
39 11 -10 23 -15 27 -12 28 17 -1 -101 -37 -153 -10 -14 -19 -34 -21 -45 -3
-11 -9 -20 -14 -20 -6 0 -34 -19 -62 -42 -29 -23 -79 -51 -110 -63 -51 -20
-63 -21 -103 -11 -83 22 -211 115 -194 142 4 8 3 9 -4 5 -13 -8 -57 58 -78
116 -19 54 -18 57 11 68 14 5 25 14 25 20 0 27 17 5 29 -37z m81 -35 c1 -7 18
-33 39 -57 l38 -43 7 36 c4 20 11 36 16 36 5 0 21 -22 36 -50 15 -27 30 -50
33 -50 3 0 20 25 36 56 l30 55 13 -31 c7 -17 10 -35 7 -41 -4 -5 -2 -9 4 -9 6
0 16 10 22 22 7 13 23 31 36 41 12 10 23 29 23 42 0 12 7 28 15 35 8 7 15 10
15 6 0 -15 -32 -81 -46 -98 -9 -9 -13 -22 -9 -28 3 -6 1 -9 -7 -8 -7 2 -12 -3
-10 -10 1 -8 -1 -11 -6 -8 -13 8 -53 -24 -46 -36 4 -6 2 -8 -3 -5 -6 4 -26 1
-44 -7 -31 -13 -37 -12 -79 9 -25 13 -58 37 -74 54 -16 17 -34 28 -39 24 -6
-3 -7 -2 -4 4 3 5 -5 32 -18 59 -30 60 -32 75 -5 41 11 -14 20 -31 20 -39z
m80 17 l24 -40 -32 23 c-31 22 -39 41 -25 55 3 4 7 6 8 5 1 -2 12 -21 25 -43z
m214 26 c3 -4 -2 -15 -12 -23 -34 -29 -42 -29 -24 1 18 32 27 37 36 22z m-547
-418 c-3 -10 -5 -2 -5 17 0 19 2 27 5 18 2 -10 2 -26 0 -35z m396 31 c9 -10
-4 -34 -19 -34 -8 0 -14 9 -14 20 0 19 19 27 33 14z m425 -6 c7 -7 12 -21 12
-33 0 -46 -53 -62 -71 -21 -21 45 26 87 59 54z m-514 -14 c3 -8 2 -12 -4 -9
-6 3 -10 10 -10 16 0 14 7 11 14 -7z m433 -26 c-3 -8 -6 -5 -6 6 -1 11 2 17 5
13 3 -3 4 -12 1 -19z m-440 -20 c-3 -8 -6 -5 -6 6 -1 11 2 17 5 13 3 -3 4 -12
1 -19z m450 -85 c7 -18 -15 -43 -38 -43 -14 0 -19 7 -19 28 0 16 3 31 6 34 9
10 45 -4 51 -19z m-590 -49 c-3 -3 -12 -4 -20 -2 -11 2 -12 9 -5 28 l10 25 11
-23 c5 -12 8 -25 4 -28z m433 4 c0 -4 -9 -8 -21 -8 -15 0 -19 4 -15 16 3 9 6
21 6 27 1 13 30 -22 30 -35z m-163 -94 c-3 -3 -12 -4 -19 -1 -8 3 -5 6 6 6 11
1 17 -2 13 -5z"/>
<path d="M585 1041 c-6 -11 9 -23 19 -14 9 9 7 23 -3 23 -6 0 -12 -4 -16 -9z"/>
<path d="M861 748 c-1 -20 14 -24 25 -6 4 6 3 8 -4 4 -5 -3 -13 0 -15 6 -3 8
-6 6 -6 -4z"/>
<path d="M316 733 c-6 -15 -8 -15 -16 -3 -6 9 -10 10 -10 3 0 -19 17 -24 30
-8 7 9 11 18 8 21 -3 3 -9 -3 -12 -13z"/>
<path d="M328 703 c7 -3 16 -2 19 1 4 3 -2 6 -13 5 -11 0 -14 -3 -6 -6z"/>
<path d="M858 703 c6 -2 18 -2 25 0 6 3 1 5 -13 5 -14 0 -19 -2 -12 -5z"/>
<path d="M320 679 c0 -5 5 -7 10 -4 6 3 10 8 10 11 0 2 -4 4 -10 4 -5 0 -10
-5 -10 -11z"/>
<path d="M347 671 c-4 -17 -3 -21 5 -13 5 5 8 16 6 23 -3 8 -7 3 -11 -10z"/>
<path d="M836 644 c19 -15 19 -15 -2 -11 -12 2 -21 -1 -21 -8 0 -8 7 -11 15
-7 10 3 13 1 8 -6 -15 -24 2 -11 19 14 9 15 12 24 7 20 -6 -3 -13 -2 -17 4 -3
5 -11 10 -18 10 -6 0 -2 -7 9 -16z"/>
<path d="M383 598 c-2 -18 0 -20 7 -8 12 18 13 30 2 30 -4 0 -9 -10 -9 -22z"/>
<path d="M770 590 c0 -5 4 -10 10 -10 5 0 6 -8 3 -17 -4 -11 -8 -12 -11 -5 -2
7 -10 12 -18 12 -11 0 -10 -4 4 -18 16 -17 17 -17 28 0 5 10 14 15 19 11 6 -4
1 2 -9 15 -21 24 -26 27 -26 12z"/>
<path d="M395 573 c-16 -12 -16 -14 -3 -10 20 7 35 -9 16 -16 -8 -4 -9 -6 -2
-6 6 -1 17 6 24 15 11 12 11 15 -1 12 -8 -2 -13 3 -11 10 3 15 1 15 -23 -5z"/>
<path d="M462 530 c-18 -29 -15 -38 4 -12 9 13 14 25 12 27 -2 2 -9 -5 -16
-15z"/>
<path d="M726 544 c7 -3 10 -15 8 -27 -4 -21 -4 -21 5 -2 10 23 5 35 -12 34
-9 0 -9 -2 -1 -5z"/>
<path d="M431 524 c0 -11 3 -14 6 -6 3 7 2 16 -1 19 -3 4 -6 -2 -5 -13z"/>
<path d="M683 512 c-3 -9 -8 -20 -9 -23 -2 -3 6 -6 19 -5 26 1 35 31 12 40
-10 3 -18 -1 -22 -12z m27 -13 c0 -5 -4 -9 -10 -9 -5 0 -10 7 -10 16 0 8 5 12
10 9 6 -3 10 -10 10 -16z"/>
<path d="M503 495 c-3 -9 -3 -19 1 -22 3 -4 6 1 6 10 0 8 6 18 13 20 9 4 9 6
-1 6 -7 1 -15 -6 -19 -14z"/>
<path d="M610 490 c-9 -6 -10 -10 -3 -10 6 0 14 -8 16 -17 3 -10 4 -6 4 10 -1
15 -2 27 -2 27 0 0 -7 -5 -15 -10z"/>
<path d="M647 469 c7 -7 15 -10 18 -7 3 3 -2 9 -12 12 -14 6 -15 5 -6 -5z"/>
</g>
</svg>
